<svg id="visual" viewBox="0 0 675 900" width="675" height="900" xmlns="http://www.w3.org/2000/svg" xmlns:xlink="http://www.w3.org/1999/xlink" version="1.1"><path d="M0 64L22.5 65.5C45 67 90 70 135 70C180 70 225 67 270 64C315 61 360 58 405 56.5C450 55 495 55 540 55C585 55 630 55 652.5 55L675 55L675 0L652.5 0C630 0 585 0 540 0C495 0 450 0 405 0C360 0 315 0 270 0C225 0 180 0 135 0C90 0 45 0 22.5 0L0 0Z" fill="#6198ff"></path><path d="M0 262L22.5 256C45 250 90 238 135 230.5C180 223 225 220 270 226C315 232 360 247 405 263.5C450 280 495 298 540 307C585 316 630 316 652.5 316L675 316L675 53L652.5 53C630 53 585 53 540 53C495 53 450 53 405 54.5C360 56 315 59 270 62C225 65 180 68 135 68C90 68 45 65 22.5 63.5L0 62Z" fill="#2975ff"></path><path d="M0 352L22.5 347.5C45 343 90 334 135 323.5C180 313 225 301 270 307C315 313 360 337 405 358C450 379 495 397 540 400C585 403 630 391 652.5 385L675 379L675 314L652.5 314C630 314 585 314 540 305C495 296 450 278 405 261.5C360 245 315 230 270 224C225 218 180 221 135 228.5C90 236 45 248 22.5 254L0 260Z" fill="#005be1"></path><path d="M0 424L22.5 418C45 412 90 400 135 385C180 370 225 352 270 358C315 364 360 394 405 415C450 436 495 448 540 452.5C585 457 630 454 652.5 452.5L675 451L675 377L652.5 383C630 389 585 401 540 398C495 395 450 377 405 356C360 335 315 311 270 305C225 299 180 311 135 321.5C90 332 45 341 22.5 345.5L0 350Z" fill="#004cbb"></path><path d="M0 595L22.5 599.5C45 604 90 613 135 605.5C180 598 225 574 270 575.5C315 577 360 604 405 611.5C450 619 495 607 540 608.5C585 610 630 625 652.5 632.5L675 640L675 449L652.5 450.5C630 452 585 455 540 450.5C495 446 450 434 405 413C360 392 315 362 270 356C225 350 180 368 135 383C90 398 45 410 22.5 416L0 422Z" fill="#004cbb"></path><path d="M0 694L22.5 695.5C45 697 90 700 135 697C180 694 225 685 270 683.5C315 682 360 688 405 689.5C450 691 495 688 540 694C585 700 630 715 652.5 722.5L675 730L675 638L652.5 630.5C630 623 585 608 540 606.5C495 605 450 617 405 609.5C360 602 315 575 270 573.5C225 572 180 596 135 603.5C90 611 45 602 22.5 597.5L0 593Z" fill="#005be1"></path><path d="M0 847L22.5 848.5C45 850 90 853 135 848.5C180 844 225 832 270 826C315 820 360 820 405 821.5C450 823 495 826 540 827.5C585 829 630 829 652.5 829L675 829L675 728L652.5 720.5C630 713 585 698 540 692C495 686 450 689 405 687.5C360 686 315 680 270 681.5C225 683 180 692 135 695C90 698 45 695 22.5 693.5L0 692Z" fill="#2975ff"></path><path d="M0 901L22.5 901C45 901 90 901 135 901C180 901 225 901 270 901C315 901 360 901 405 901C450 901 495 901 540 901C585 901 630 901 652.5 901L675 901L675 827L652.5 827C630 827 585 827 540 825.5C495 824 450 821 405 819.5C360 818 315 818 270 824C225 830 180 842 135 846.5C90 851 45 848 22.5 846.5L0 845Z" fill="#6198ff"></path></svg>