<svg id="visual" viewBox="0 0 960 540" width="960" height="540" xmlns="http://www.w3.org/2000/svg" xmlns:xlink="http://www.w3.org/1999/xlink" version="1.1"><rect x="0" y="0" width="960" height="540" fill="#002233"></rect><path d="M0 440L22.8 441.7C45.7 443.3 91.3 446.7 137 432.3C182.7 418 228.3 386 274 383.3C319.7 380.7 365.3 407.3 411.2 420C457 432.7 503 431.3 548.8 417.3C594.7 403.3 640.3 376.7 686 365C731.7 353.3 777.3 356.7 823 366.2C868.7 375.7 914.3 391.3 937.2 399.2L960 407L960 541L937.2 541C914.3 541 868.7 541 823 541C777.3 541 731.7 541 686 541C640.3 541 594.7 541 548.8 541C503 541 457 541 411.2 541C365.3 541 319.7 541 274 541C228.3 541 182.7 541 137 541C91.3 541 45.7 541 22.8 541L0 541Z" fill="#0066FF" stroke-linecap="round" stroke-linejoin="miter"></path></svg>